<?xml version="1.0" encoding="UTF-8" standalone="no"?>
<svg
   xmlns:dc="http://purl.org/dc/elements/1.1/"
   xmlns:cc="http://creativecommons.org/ns#"
   xmlns:rdf="http://www.w3.org/1999/02/22-rdf-syntax-ns#"
   xmlns:svg="http://www.w3.org/2000/svg"
   xmlns="http://www.w3.org/2000/svg"
   xmlns:sodipodi="http://sodipodi.sourceforge.net/DTD/sodipodi-0.dtd"
   xmlns:inkscape="http://www.inkscape.org/namespaces/inkscape"
   width="70.215721mm"
   height="45.6875mm"
   viewBox="0 0 70.215721 45.6875"
   version="1.1"
   id="svg8"
   inkscape:version="1.0.2 (e86c870879, 2021-01-15)"
   sodipodi:docname="gmail2.svg">
  <defs
     id="defs2" />
  <sodipodi:namedview
     id="base"
     pagecolor="#ffffff"
     bordercolor="#666666"
     borderopacity="1.0"
     inkscape:pageopacity="0.0"
     inkscape:pageshadow="2"
     inkscape:zoom="2"
     inkscape:cx="171.55177"
     inkscape:cy="106.29848"
     inkscape:document-units="px"
     inkscape:current-layer="layer1"
     inkscape:document-rotation="0"
     showgrid="false"
     showguides="true"
     inkscape:guide-bbox="true"
     inkscape:snap-global="true"
     fit-margin-top="0"
     fit-margin-left="0"
     fit-margin-right="0"
     fit-margin-bottom="0"
     inkscape:window-width="1366"
     inkscape:window-height="717"
     inkscape:window-x="0"
     inkscape:window-y="0"
     inkscape:window-maximized="1" />
  <metadata
     id="metadata5">
    <rdf:RDF>
      <cc:Work
         rdf:about="">
        <dc:format>image/svg+xml</dc:format>
        <dc:type
           rdf:resource="http://purl.org/dc/dcmitype/StillImage" />
        <dc:title></dc:title>
      </cc:Work>
    </rdf:RDF>
  </metadata>
  <g
     inkscape:label="Layer 1"
     inkscape:groupmode="layer"
     id="layer1"
     transform="translate(-70.072725,-86.287238)">
    <g
       id="g39"
       transform="matrix(0.15808474,0,0,0.15808474,88.418347,90.8339)"
       style="stroke-width:6.32572">
      <path
         style="opacity:0.997;fill:#ff0000;fill-rule:evenodd;stroke:none;stroke-width:18.9772;stroke-linecap:round;stroke-linejoin:round;stop-color:#000000"
         d="m 72.255859,75.599609 v 4.544922 l 6.548829,3.78125 57.031252,32.611329 49.55664,-28.335938 14.02148,-8.097656 v -4.503907 l -63.57812,36.355471 z"
         transform="matrix(0.26458332,0,0,0.26458332,70.072725,86.287238)"
         id="path912" />
      <path
         style="opacity:0.997;fill:#0000ff;fill-rule:evenodd;stroke:none;stroke-width:5.02105;stroke-linecap:round;stroke-linejoin:round;stop-color:#000000"
         d="m 73.375366,99.499868 v 23.872962 c 0,3.05197 2.457252,5.50871 5.509224,5.50871 h 6.886917 v -2.79363 h -3.142443 c -2.622296,0 -4.733561,-2.11126 -4.733561,-4.73356 v -19.2443 z"
         id="path910" />
      <path
         style="opacity:0.997;fill:#00ff00;fill-rule:evenodd;stroke:none;stroke-width:5.02105;stroke-linecap:round;stroke-linejoin:round;stop-color:#000000"
         d="m 138.6489,99.488499 -4.52014,2.610181 v 19.25567 c 0,2.6223 -2.11127,4.73356 -4.73356,4.73356 h -3.14348 v 2.79363 h 6.88847 c 3.05197,0 5.50871,-2.45674 5.50871,-5.50871 z"
         id="path908" />
      <path
         style="opacity:0.997;fill:#ffff00;fill-rule:evenodd;stroke:none;stroke-width:5.02105;stroke-linecap:round;stroke-linejoin:round;stop-color:#000000"
         d="m 131.5992,88.135704 -0.22273,0.126607 v -0.07235 l -5.12475,2.93057 v 0.787032 l 1.62833,-0.931209 v 0.06201 l 0.1912,-0.109038 h 1.32395 c 2.62229,0 4.73356,2.111265 4.73356,4.733561 v 5.072043 l 4.52014,-2.610178 v -4.479829 c 0,-3.051974 -2.45674,-5.509224 -5.50871,-5.509224 z"
         id="path906" />
      <path
         style="opacity:0.997;fill:#ff0000;fill-rule:evenodd;stroke:none;stroke-width:5.02105;stroke-linecap:round;stroke-linejoin:round;stop-color:#000000"
         d="m 78.88459,88.135704 c -3.051972,0 -5.509225,2.45725 -5.509225,5.509224 v 4.491199 l 4.520137,2.610173 v -5.083407 c 0,-2.622296 2.111266,-4.733561 4.733561,-4.733561 h 1.327568 l 0.187586,0.106453 v -0.05943 l 4.515486,2.581755 0.0016,-0.0026 v 0.0036 l 16.822227,9.61853 16.82223,-9.61853 v -0.01085 l 0.004,0.0083 2.62051,-1.498617 V 91.271419 L 105.4835,102.39115 85.904851,91.195971 v -0.0041 l -0.0021,0.0031 -5.254999,-3.004973 v 0.06976 l -0.218591,-0.124023 z"
         id="path911" />
      <path
         id="path851"
         style="opacity:0.997;fill:none;fill-rule:evenodd;stroke:none;stroke-width:5.02105;stroke-linecap:round;stroke-linejoin:round;stop-color:#000000"
         d="m 79.413526,88.665004 c -3.051972,0 -5.509223,2.457252 -5.509223,5.509226 v 28.66956 c 0,3.05197 2.457251,5.50871 5.509223,5.50871 h 7.020245 v -2.79363 h -3.275769 c -2.622296,0 -4.733563,-2.11126 -4.733563,-4.73356 V 96.192193 c 0,-2.622296 2.111267,-4.733562 4.733563,-4.733562 h 1.327565 l 0.187587,0.106455 v -0.05943 l 4.515488,2.581754 0.0016,-0.0026 v 0.0036 l 16.822228,9.61853 16.82222,-9.61853 v -0.01085 l 0.004,0.0083 4.51239,-2.580204 v 0.06201 l 0.1912,-0.109038 h 1.32395 c 2.62229,0 4.73356,2.111267 4.73356,4.733563 v 24.633119 c 0,2.6223 -2.11127,4.73356 -4.73356,4.73356 h -3.2758 v 2.79369 h 7.02076 c 3.05197,0 5.50871,-2.45674 5.50871,-5.50871 V 94.17423 c 0,-3.051974 -2.45674,-5.509226 -5.50871,-5.509226 h -1.54099 l -0.22273,0.126608 v -0.07235 l -5.25136,3.002917 -0.005,-0.0093 v 0.01241 L 106.01242,102.92046 86.433779,91.725278 v -0.0041 l -0.0021,0.0031 -5.254977,-3.004984 v 0.06976 L 80.958111,88.66503 Z m 9.776663,17.624756 v 1.21233 l 16.822231,9.61905 16.82171,-9.61853 v -1.21285 l -16.82171,9.61905 z" />
      <path
         style="opacity:0.996;fill:#000000;fill-opacity:0.0944315;fill-rule:evenodd;stroke:none;stroke-width:18.9772;stroke-linecap:round;stroke-linejoin:round;stop-color:#000000"
         d="m 72.255859,75.599609 v 4.544922 l 6.548829,3.78125 57.031252,32.611329 49.55664,-28.335938 14.02148,-8.097656 v -4.503907 l -63.57812,36.355471 z"
         transform="matrix(0.26458332,0,0,0.26458332,70.072725,86.287238)"
         id="path24" />
      <path
         style="opacity:0.996;fill:#000000;fill-opacity:0.0944315;fill-rule:evenodd;stroke:none;stroke-width:5.02105;stroke-linecap:round;stroke-linejoin:round;stop-color:#000000"
         d="m 73.375366,99.499868 v 23.872962 c 0,3.05197 2.457252,5.50871 5.509224,5.50871 h 6.886917 v -2.79363 h -3.142443 c -2.622296,0 -4.733561,-2.11126 -4.733561,-4.73356 v -19.2443 z"
         id="path22" />
      <path
         style="opacity:0.996;fill:#000000;fill-opacity:0.0944315;fill-rule:evenodd;stroke:none;stroke-width:5.02105;stroke-linecap:round;stroke-linejoin:round;stop-color:#000000"
         d="m 138.6489,99.488499 -4.52014,2.610181 v 19.25567 c 0,2.6223 -2.11127,4.73356 -4.73356,4.73356 h -3.14348 v 2.79363 h 6.88847 c 3.05197,0 5.50871,-2.45674 5.50871,-5.50871 z"
         id="path20" />
      <path
         style="opacity:0.996;fill:#000000;fill-opacity:0.0944315;fill-rule:evenodd;stroke:none;stroke-width:5.02105;stroke-linecap:round;stroke-linejoin:round;stop-color:#000000"
         d="m 131.5992,88.135704 -0.22273,0.126607 v -0.07235 l -5.12475,2.93057 v 0.787032 l 1.62833,-0.931209 v 0.06201 l 0.1912,-0.109038 h 1.32395 c 2.62229,0 4.73356,2.111265 4.73356,4.733561 v 5.072043 l 4.52014,-2.610178 v -4.479829 c 0,-3.051974 -2.45674,-5.509224 -5.50871,-5.509224 z"
         id="path18" />
      <path
         style="opacity:0.996;fill:#000000;fill-opacity:0.0944315;fill-rule:evenodd;stroke:none;stroke-width:5.02105;stroke-linecap:round;stroke-linejoin:round;stop-color:#000000"
         d="m 78.88459,88.135704 c -3.051972,0 -5.509225,2.45725 -5.509225,5.509224 v 4.491199 l 4.520137,2.610173 v -5.083407 c 0,-2.622296 2.111266,-4.733561 4.733561,-4.733561 h 1.327568 l 0.187586,0.106453 v -0.05943 l 4.515486,2.581755 0.0016,-0.0026 v 0.0036 l 16.822227,9.61853 16.82223,-9.61853 v -0.01085 l 0.004,0.0083 2.62051,-1.498617 V 91.271419 L 105.4835,102.39115 85.904851,91.195971 v -0.0041 l -0.0021,0.0031 -5.254999,-3.004973 v 0.06976 l -0.218591,-0.124023 z"
         id="path922" />
      <path
         id="path924"
         style="opacity:0.997;fill:none;fill-rule:evenodd;stroke:none;stroke-width:5.02105;stroke-linecap:round;stroke-linejoin:round;stop-color:#000000"
         d="m 79.413526,88.665004 c -3.051972,0 -5.509223,2.457252 -5.509223,5.509226 v 28.66956 c 0,3.05197 2.457251,5.50871 5.509223,5.50871 h 7.020245 v -2.79363 h -3.275769 c -2.622296,0 -4.733563,-2.11126 -4.733563,-4.73356 V 96.192193 c 0,-2.622296 2.111267,-4.733562 4.733563,-4.733562 h 1.327565 l 0.187587,0.106455 v -0.05943 l 4.515488,2.581754 0.0016,-0.0026 v 0.0036 l 16.822228,9.61853 16.82222,-9.61853 v -0.01085 l 0.004,0.0083 4.51239,-2.580204 v 0.06201 l 0.1912,-0.109038 h 1.32395 c 2.62229,0 4.73356,2.111267 4.73356,4.733563 v 24.633119 c 0,2.6223 -2.11127,4.73356 -4.73356,4.73356 h -3.2758 v 2.79369 h 7.02076 c 3.05197,0 5.50871,-2.45674 5.50871,-5.50871 V 94.17423 c 0,-3.051974 -2.45674,-5.509226 -5.50871,-5.509226 h -1.54099 l -0.22273,0.126608 v -0.07235 l -5.25136,3.002917 -0.005,-0.0093 v 0.01241 L 106.01242,102.92046 86.433779,91.725278 v -0.0041 l -0.0021,0.0031 -5.254977,-3.004984 v 0.06976 L 80.958111,88.66503 Z m 9.776663,17.624756 v 1.21233 l 16.822231,9.61905 16.82171,-9.61853 v -1.21285 l -16.82171,9.61905 z" />
      <path
         id="path926"
         style="opacity:0.997;fill:none;fill-rule:evenodd;stroke:none;stroke-width:5.02105;stroke-linecap:round;stroke-linejoin:round;stop-color:#000000"
         d="m 79.413526,88.665004 c -3.051972,0 -5.509223,2.457252 -5.509223,5.509226 v 28.66956 c 0,3.05197 2.457251,5.50871 5.509223,5.50871 h 7.020245 v -2.79363 h -3.275769 c -2.622296,0 -4.733563,-2.11126 -4.733563,-4.73356 V 96.192193 c 0,-2.622296 2.111267,-4.733562 4.733563,-4.733562 h 1.327565 l 0.187587,0.106455 v -0.05943 l 4.515488,2.581754 0.0016,-0.0026 v 0.0036 l 16.822228,9.61853 16.82222,-9.61853 v -0.01085 l 0.004,0.0083 4.51239,-2.580204 v 0.06201 l 0.1912,-0.109038 h 1.32395 c 2.62229,0 4.73356,2.111267 4.73356,4.733563 v 24.633119 c 0,2.6223 -2.11127,4.73356 -4.73356,4.73356 h -3.2758 v 2.79369 h 7.02076 c 3.05197,0 5.50871,-2.45674 5.50871,-5.50871 V 94.17423 c 0,-3.051974 -2.45674,-5.509226 -5.50871,-5.509226 h -1.54099 l -0.22273,0.126608 v -0.07235 l -5.25136,3.002917 -0.005,-0.0093 v 0.01241 L 106.01242,102.92046 86.433779,91.725278 v -0.0041 l -0.0021,0.0031 -5.254977,-3.004984 v 0.06976 L 80.958111,88.66503 Z m 9.776663,17.624756 v 1.21233 l 16.822231,9.61905 16.82171,-9.61853 v -1.21285 l -16.82171,9.61905 z" />
    </g>
  </g>
</svg>
