<?xml version="1.0" encoding="UTF-8" standalone="no"?>
<svg
   xmlns:dc="http://purl.org/dc/elements/1.1/"
   xmlns:cc="http://creativecommons.org/ns#"
   xmlns:rdf="http://www.w3.org/1999/02/22-rdf-syntax-ns#"
   xmlns:svg="http://www.w3.org/2000/svg"
   xmlns="http://www.w3.org/2000/svg"
   xmlns:sodipodi="http://sodipodi.sourceforge.net/DTD/sodipodi-0.dtd"
   xmlns:inkscape="http://www.inkscape.org/namespaces/inkscape"
   width="70.215721mm"
   height="45.6875mm"
   viewBox="0 0 70.215721 45.6875"
   version="1.1"
   id="svg8"
   inkscape:version="1.0.2 (e86c870879, 2021-01-15)"
   sodipodi:docname="gmail.svg">
  <defs
     id="defs2" />
  <sodipodi:namedview
     id="base"
     pagecolor="#ffffff"
     bordercolor="#666666"
     borderopacity="1.0"
     inkscape:pageopacity="0.0"
     inkscape:pageshadow="2"
     inkscape:zoom="2"
     inkscape:cx="233.53264"
     inkscape:cy="57.624443"
     inkscape:document-units="px"
     inkscape:current-layer="layer1"
     inkscape:document-rotation="0"
     showgrid="false"
     showguides="true"
     inkscape:guide-bbox="true"
     inkscape:snap-global="true"
     fit-margin-top="0"
     fit-margin-left="0"
     fit-margin-right="0"
     fit-margin-bottom="0"
     inkscape:window-width="1366"
     inkscape:window-height="717"
     inkscape:window-x="0"
     inkscape:window-y="0"
     inkscape:window-maximized="1" />
  <metadata
     id="metadata5">
    <rdf:RDF>
      <cc:Work
         rdf:about="">
        <dc:format>image/svg+xml</dc:format>
        <dc:type
           rdf:resource="http://purl.org/dc/dcmitype/StillImage" />
        <dc:title />
      </cc:Work>
    </rdf:RDF>
  </metadata>
  <g
     inkscape:label="Layer 1"
     inkscape:groupmode="layer"
     id="layer1"
     transform="translate(-70.072725,-86.287238)">
    <path
       style="opacity:0.997;fill:#ff0000;fill-rule:evenodd;stroke:none;stroke-width:3;stroke-linecap:round;stroke-linejoin:round;stop-color:#000000"
       d="m 72.255859,75.599609 v 4.544922 l 6.548829,3.78125 57.031252,32.611329 49.55664,-28.335938 14.02148,-8.097656 v -4.503907 l -63.57812,36.355471 z"
       id="path912"
       transform="matrix(0.26458332,0,0,0.26458332,70.072725,86.287238)" />
    <path
       style="opacity:0.997;fill:#0000ff;fill-rule:evenodd;stroke:none;stroke-width:3;stroke-linecap:round;stroke-linejoin:round;stop-color:#000000"
       d="m 14.482422,47.9375 v 90.22852 c 0,11.535 9.287253,20.82031 20.822266,20.82031 h 26.029296 v -10.5586 H 49.457031 c -9.91104,0 -17.890625,-7.97957 -17.890625,-17.89062 V 57.802734 Z"
       id="path910"
       transform="matrix(0.26458332,0,0,0.26458332,70.072725,86.287238)" />
    <path
       style="opacity:0.997;fill:#00ff00;fill-rule:evenodd;stroke:none;stroke-width:3;stroke-linecap:round;stroke-linejoin:round;stop-color:#000000"
       d="m 257.18555,47.894531 -17.08399,9.865235 v 72.777344 c 0,9.91105 -7.9796,17.89062 -17.89062,17.89062 h -11.88086 v 10.5586 h 26.03515 c 11.53501,0 20.82032,-9.28531 20.82032,-20.82031 z"
       id="path908"
       transform="matrix(0.26458332,0,0,0.26458332,70.072725,86.287238)" />
    <path
       id="path906"
       style="opacity:0.997;fill:#ffff00;fill-rule:evenodd;stroke:none;stroke-width:3;stroke-linecap:round;stroke-linejoin:round;stop-color:#000000"
       d="M 230.54102 8.9863281 L 229.69922 9.4648438 L 229.69922 9.1914062 L 210.33008 20.267578 L 210.33008 23.242188 L 216.48438 19.722656 L 216.48438 19.957031 L 217.20703 19.544922 L 222.21094 19.544922 C 232.12196 19.544922 240.10156 27.524507 240.10156 37.435547 L 240.10156 52.333984 L 257.18555 42.564453 L 257.18555 29.808594 C 257.18555 18.273574 247.90024 8.9863281 236.36523 8.9863281 L 230.54102 8.9863281 z "
       transform="matrix(0.26458332,0,0,0.26458332,70.072725,86.287238)" />
    <path
       id="path911"
       style="opacity:0.997;fill:#ff0000;fill-rule:evenodd;stroke:none;stroke-width:3;stroke-linecap:round;stroke-linejoin:round;stop-color:#000000"
       d="M 35.304688 8.9863281 C 23.769675 8.9863281 14.482422 18.273574 14.482422 29.808594 L 14.482422 42.564453 L 31.566406 52.333984 L 31.566406 37.435547 C 31.566406 27.524507 39.545991 19.544922 49.457031 19.544922 L 54.474609 19.544922 L 55.183594 19.947266 L 55.183594 19.722656 L 72.25 29.480469 L 72.255859 29.470703 L 72.255859 29.484375 L 135.83594 65.837891 L 199.41602 29.484375 L 199.41602 29.443359 L 199.42969 29.474609 L 204.68359 26.46875 L 204.69727 23.490234 L 135.83594 62.865234 L 61.837891 20.552734 L 61.837891 20.537109 L 61.830078 20.548828 L 41.96875 9.1914062 L 41.96875 9.4550781 L 41.142578 8.9863281 L 35.304688 8.9863281 z "
       transform="matrix(0.26458332,0,0,0.26458332,70.072725,86.287238)" />
    <path
       id="path851"
       style="opacity:0.997;fill:none;fill-rule:evenodd;stroke:none;stroke-width:0.79375;stroke-linecap:round;stroke-linejoin:round;stop-color:#000000"
       d="m 79.413526,88.665004 c -3.051972,0 -5.509223,2.457252 -5.509223,5.509226 v 28.66956 c 0,3.05197 2.457251,5.50871 5.509223,5.50871 h 7.020245 v -2.79363 h -3.275769 c -2.622296,0 -4.733563,-2.11126 -4.733563,-4.73356 V 96.192193 c 0,-2.622296 2.111267,-4.733562 4.733563,-4.733562 h 1.327565 l 0.187587,0.106455 v -0.05943 l 4.515488,2.581754 0.0016,-0.0026 v 0.0036 l 16.822228,9.61853 16.82222,-9.61853 v -0.01085 l 0.004,0.0083 4.51239,-2.580204 v 0.06201 l 0.1912,-0.109038 h 1.32395 c 2.62229,0 4.73356,2.111267 4.73356,4.733563 v 24.633119 c 0,2.6223 -2.11127,4.73356 -4.73356,4.73356 h -3.2758 v 2.79369 h 7.02076 c 3.05197,0 5.50871,-2.45674 5.50871,-5.50871 V 94.17423 c 0,-3.051974 -2.45674,-5.509226 -5.50871,-5.509226 h -1.54099 l -0.22273,0.126608 v -0.07235 l -5.25136,3.002917 -0.005,-0.0093 v 0.01241 L 106.01242,102.92046 86.433779,91.725278 v -0.0041 l -0.0021,0.0031 -5.254977,-3.004984 v 0.06976 L 80.958111,88.66503 Z m 9.776663,17.624756 v 1.21233 l 16.822231,9.61905 16.82171,-9.61853 v -1.21285 l -16.82171,9.61905 z" />
    <path
       id="path924"
       style="opacity:0.997;fill:none;fill-rule:evenodd;stroke:none;stroke-width:0.79375;stroke-linecap:round;stroke-linejoin:round;stop-color:#000000"
       d="m 79.413526,88.665004 c -3.051972,0 -5.509223,2.457252 -5.509223,5.509226 v 28.66956 c 0,3.05197 2.457251,5.50871 5.509223,5.50871 h 7.020245 v -2.79363 h -3.275769 c -2.622296,0 -4.733563,-2.11126 -4.733563,-4.73356 V 96.192193 c 0,-2.622296 2.111267,-4.733562 4.733563,-4.733562 h 1.327565 l 0.187587,0.106455 v -0.05943 l 4.515488,2.581754 0.0016,-0.0026 v 0.0036 l 16.822228,9.61853 16.82222,-9.61853 v -0.01085 l 0.004,0.0083 4.51239,-2.580204 v 0.06201 l 0.1912,-0.109038 h 1.32395 c 2.62229,0 4.73356,2.111267 4.73356,4.733563 v 24.633119 c 0,2.6223 -2.11127,4.73356 -4.73356,4.73356 h -3.2758 v 2.79369 h 7.02076 c 3.05197,0 5.50871,-2.45674 5.50871,-5.50871 V 94.17423 c 0,-3.051974 -2.45674,-5.509226 -5.50871,-5.509226 h -1.54099 l -0.22273,0.126608 v -0.07235 l -5.25136,3.002917 -0.005,-0.0093 v 0.01241 L 106.01242,102.92046 86.433779,91.725278 v -0.0041 l -0.0021,0.0031 -5.254977,-3.004984 v 0.06976 L 80.958111,88.66503 Z m 9.776663,17.624756 v 1.21233 l 16.822231,9.61905 16.82171,-9.61853 v -1.21285 l -16.82171,9.61905 z" />
    <path
       id="path926"
       style="opacity:0.997;fill:none;fill-rule:evenodd;stroke:none;stroke-width:0.79375;stroke-linecap:round;stroke-linejoin:round;stop-color:#000000"
       d="m 79.413526,88.665004 c -3.051972,0 -5.509223,2.457252 -5.509223,5.509226 v 28.66956 c 0,3.05197 2.457251,5.50871 5.509223,5.50871 h 7.020245 v -2.79363 h -3.275769 c -2.622296,0 -4.733563,-2.11126 -4.733563,-4.73356 V 96.192193 c 0,-2.622296 2.111267,-4.733562 4.733563,-4.733562 h 1.327565 l 0.187587,0.106455 v -0.05943 l 4.515488,2.581754 0.0016,-0.0026 v 0.0036 l 16.822228,9.61853 16.82222,-9.61853 v -0.01085 l 0.004,0.0083 4.51239,-2.580204 v 0.06201 l 0.1912,-0.109038 h 1.32395 c 2.62229,0 4.73356,2.111267 4.73356,4.733563 v 24.633119 c 0,2.6223 -2.11127,4.73356 -4.73356,4.73356 h -3.2758 v 2.79369 h 7.02076 c 3.05197,0 5.50871,-2.45674 5.50871,-5.50871 V 94.17423 c 0,-3.051974 -2.45674,-5.509226 -5.50871,-5.509226 h -1.54099 l -0.22273,0.126608 v -0.07235 l -5.25136,3.002917 -0.005,-0.0093 v 0.01241 L 106.01242,102.92046 86.433779,91.725278 v -0.0041 l -0.0021,0.0031 -5.254977,-3.004984 v 0.06976 L 80.958111,88.66503 Z m 9.776663,17.624756 v 1.21233 l 16.822231,9.61905 16.82171,-9.61853 v -1.21285 l -16.82171,9.61905 z" />
    <path
       style="fill:#000000;stroke:none;stroke-width:0.264583px;stroke-linecap:butt;stroke-linejoin:miter;stroke-opacity:1"
       d="m 73.904532,97.549082 4.520137,2.584858 v 1.44694 l -4.520137,-2.610179 z"
       id="path38" />
    <path
       style="fill:#000000;stroke:none;stroke-width:0.264583px;stroke-linecap:butt;stroke-linejoin:miter;stroke-opacity:1"
       d="m 133.59959,100.13394 4.52014,-2.584858 v 1.41025 l -4.52014,2.610178 z"
       id="path40" />
    <path
       style="fill:#000000;stroke:none;stroke-width:0.264583px;stroke-linecap:butt;stroke-linejoin:miter;stroke-opacity:1"
       d="m 124.23221,92.502362 1.49035,-0.852661 v 0.787032 l -1.49397,0.853695 z"
       id="path42" />
  </g>
</svg>
